/* XPM */
static char *dummy[]={
"32 32 351 2",
"Qt c None",
"#F c #000001",
"cd c #010100",
".k c #070706",
"dy c #000406",
"ds c #000408",
"cw c #000811",
"dx c #00131c",
".l c #222220",
".# c #242423",
"dC c #00141e",
"#Z c #021b27",
"bU c #262623",
"dr c #000e1e",
".j c #302f2c",
"c3 c #001224",
"dz c #001d2b",
".i c #363632",
".h c #373633",
".g c #373733",
".f c #383734",
".e c #383835",
".d c #393836",
".c c #393936",
".b c #3a3937",
".a c #3a3a38",
"dB c #002030",
"dA c #002130",
"cc c #002132",
"bT c #002232",
"by c #012334",
"be c #022435",
"aV c #022536",
"aC c #032537",
"ag c #032638",
"bz c #303332",
"bf c #373733",
"aW c #383734",
"aD c #383834",
"ah c #393835",
"#0 c #393935",
"#G c #3a3936",
"#l c #3a3a37",
"#a c #3b3a37",
".0 c #3b3b38",
".N c #3b3b39",
".z c #3c3b39",
"#E c #052b3f",
"ce c #3c3c37",
"cN c #001c37",
"#D c #0a425f",
"#C c #0d4462",
"#B c #114562",
"#A c #144662",
"#z c #184762",
"#y c #1c4962",
"dh c #002042",
".y c #6d6b64",
"dt c #004262",
"ci c #516370",
"cf c #325574",
"cj c #3f5d78",
".M c #8f8d83",
"c4 c #00376f",
"ck c #536e85",
"dj c #046093",
"cA c #003e7c",
"di c #003d7b",
"#x c #77a1b2",
"cl c #3790bf",
"cC c #0f78bf",
"cz c #00509f",
"cx c #0157ac",
"c5 c #004c9a",
"cB c #0050a2",
"dw c #0885c4",
".m c #e9e8e0",
"cO c #0054a8",
"#Y c #139ee8",
"bV c #e2e0d5",
"c7 c #0264b5",
"c2 c #0087ca",
"cv c #0088ca",
"cb c #0189cd",
"bS c #058ed3",
"dq c #078bcd",
"bx c #0993d9",
"ch c #0b69c4",
"bd c #0c97de",
"aU c #0f9be4",
"aB c #119de7",
"af c #13a0ea",
"bA c #699fce",
"bg c #b3c6ce",
"aX c #e3e0d1",
"aE c #e5e2d4",
"ai c #e7e4d6",
"#1 c #e8e6d9",
"#H c #eae8dc",
"#m c #eceade",
"#b c #eeece1",
".1 c #f0eee4",
".O c #f1f0e6",
".A c #f3f2e8",
"c6 c #0054aa",
"cR c #0057ad",
"cg c #0266c8",
"du c #1190d2",
".x c #e3e0d1",
"cQ c #0055ab",
"cP c #0056ad",
"dp c #0088cb",
"dd c #0088cc",
"do c #0089cc",
"cy c #015ebb",
"dc c #018ace",
"dn c #018bce",
"bi c #026dd4",
"dm c #028cd0",
"bX c #036dd3",
"bC c #0371db",
"cu c #038bce",
"db c #038dd1",
"dl c #038ed2",
"bj c #046acc",
"cZ c #058bce",
"da c #0590d6",
"ca c #0691d6",
"cY c #0691d7",
"d# c #0a91d5",
"cX c #0a95dc",
"bR c #0a96de",
"dk c #0b91d5",
"cW c #0c99e1",
"bw c #0e9ce4",
"bD c #1074d3",
"bQ c #129de5",
"bc c #12a0ea",
"bv c #14a3ee",
"aZ c #1570c7",
"aT c #15a4ef",
"c8 c #1793d5",
"cS c #1890d9",
"dv c #1893d5",
"aA c #18a7f4",
"cM c #1991ca",
"ae c #19a9f6",
"#X c #1aaaf8",
"cD c #1babf9",
"aS c #1bacf9",
"bh c #1d79d0",
"az c #1eaefd",
"ad c #21b0fe",
"#W c #22b0fe",
"de c #238dbf",
"aR c #23b0fe",
"cI c #2495ce",
"cm c #24b1fe",
"bM c #26b0fb",
"cH c #2799d2",
"ay c #27b2fe",
"bY c #297fd2",
"cG c #299bd6",
"ac c #2ab3ff",
"bB c #2c83d4",
"#V c #2cb3ff",
"b3 c #2eb4ff",
"b4 c #30b4fc",
"a0 c #33658e",
"dg c #3392bd",
"#U c #35b6ff",
"bJ c #37b7fe",
"bb c #38b3f4",
"ab c #39b6fc",
"bI c #39b8ff",
"cV c #3aa3d6",
"cJ c #3c9ac6",
"#T c #3eb9ff",
"bs c #40b1ef",
"bo c #41baff",
"bn c #43bbff",
"c# c #47a9d8",
"a7 c #47bcfe",
"#S c #47bcff",
"cn c #48b8f3",
"df c #4997b9",
"d. c #499dc3",
"bp c #49baf9",
"a6 c #4bbdff",
"c9 c #4d9ec3",
"a5 c #4dbeff",
".8 c #4f544d",
"aM c #50bffe",
"#R c #50bfff",
"#j c #51564f",
"bE c #5192cb",
"at c #52bffc",
"bN c #54b5e6",
".4 c #555a53",
"aL c #55c0ff",
"#9 c #56c1fe",
"as c #57c2ff",
"aK c #58c1ff",
"#Q c #5ac2ff",
"aI c #5b5f57",
".5 c #5b5f58",
"an c #5d615a",
"a1 c #5d635c",
"ap c #5d9dbe",
"aJ c #5da1c4",
"ar c #5ec3ff",
"#8 c #5ec4ff",
"ax c #5fbeef",
"#K c #60655d",
".9 c #62665e",
"a4 c #62a9ce",
"aq c #62c5ff",
".7 c #63675f",
"#P c #63c5ff",
".6 c #656961",
"#t c #658694",
"#7 c #65c6ff",
".U c #666962",
".3 c #666a62",
"#3 c #696d65",
"#O c #6bc8ff",
"c1 c #6cb1cc",
"aN c #6cc3f1",
"bk c #6f9dc4",
"#6 c #72accb",
"#N c #73caff",
"#. c #74776d",
"b2 c #74c8f4",
"ao c #75786f",
"bK c #75c4eb",
"bu c #78c1e3",
"bH c #78c6ed",
"bW c #7badda",
"b. c #7dbad6",
"bm c #7ec8ed",
"#q c #82857c",
"a. c #82caee",
"#e c #85887f",
"cE c #88c7e2",
"cF c #8fbfd1",
".T c #91938a",
"a2 c #96978b",
"ct c #98c5d2",
"#f c #9a9c93",
"#p c #9b9d93",
"bt c #9cc8d8",
"aY c #9db1bb",
"b7 c #a0d1e3",
"b8 c #a2cedd",
"c0 c #a3c4cb",
"aa c #a3d2e4",
"bL c #a4cbd8",
"aQ c #a4d0e0",
"a8 c #a4d1e2",
"#M c #a6d3e8",
"#4 c #a9a99e",
".2 c #adaea5",
"#w c #aed4e1",
".G c #b0b1a6",
"am c #b1b1a6",
"a3 c #b2b1a4",
"#u c #b2d4e0",
"#v c #b2d6e2",
"a# c #b5d7e2",
".X c #b7b7ab",
"bF c #b7c7cd",
".W c #b8b8ac",
"b5 c #b8d6dd",
"aH c #b9b8ac",
".V c #b9b9ae",
".Y c #bbbbae",
".S c #bcbdb2",
".R c #bdbeb4",
"b6 c #bdd6d9",
"#J c #bebeb3",
".Q c #bebfb5",
"#s c #c0c5bc",
"bP c #c6d8d7",
"au c #c8dbdb",
".F c #d0cfc5",
"cT c #d1dcd6",
"#5 c #d5d3c5",
"#i c #d5d4c7",
"aF c #d6dad4",
"br c #d6ddd4",
"cr c #d8dcd1",
"b# c #d8ddd4",
"bq c #d8dfd7",
".P c #d9d9cf",
"cq c #d9dcd1",
"cL c #dadfd4",
"ba c #dae0d7",
"#k c #dbd8ca",
"cs c #dcded2",
"cK c #dddfd3",
"aP c #deded2",
"bl c #e0decf",
"co c #e0e2d6",
"#2 c #e1dfd1",
"#L c #e1dfd2",
"bG c #e2dfd0",
"aG c #e2e0d2",
"b9 c #e2e2d5",
"bZ c #e2e4e1",
"## c #e3e0d0",
".Z c #e3e0d1",
"cp c #e3e2d4",
"cU c #e3e2d5",
".L c #e4e1d1",
"bO c #e4e3d5",
"aO c #e4e3d6",
"b0 c #e4e5e1",
".K c #e5e3d4",
"c. c #e5e4d5",
".w c #e6e3d4",
"aw c #e6e4d5",
"a9 c #e7e4d5",
"al c #e7e4d6",
".J c #e7e5d6",
".v c #e7e5d7",
"av c #e8e5d6",
"ak c #e8e5d7",
"aj c #e8e6d8",
".I c #e9e6d8",
".u c #e9e6d9",
"#h c #e9e7da",
"#r c #eae7da",
".H c #eae8db",
"b1 c #eae9e2",
".t c #ebe8db",
"#g c #ebe9dc",
"#I c #ece9dd",
".s c #eceade",
"#o c #edebde",
"#n c #edebdf",
".r c #eeece0",
"#d c #eeece1",
"#c c #efede2",
".E c #efeee2",
".q c #f0eee3",
".D c #f1efe5",
".p c #f2f0e6",
".C c #f2f1e7",
".o c #f3f2e8",
".B c #f4f2e9",
".n c #f5f4ea",
"QtQtQtQtQtQtQtQtQtQtQtQtQtQtQtQtQtQtQtQtQtQtQtQtQtQtQtQtQtQtQtQt",
"QtQtQtQtQtQtQtQtQtQtQtQtQtQtQtQtQtQtQtQtQtQtQtQtQtQtQtQtQtQtQtQt",
"QtQtQtQtQtQtQtQtQtQtQtQtQtQtQtQtQtQtQtQtQtQtQtQtQtQtQtQtQtQtQtQt",
"QtQtQtQtQtQtQtQtQtQtQtQtQtQtQtQtQtQtQtQtQtQtQtQtQtQtQtQtQtQtQtQt",
"QtQtQtQtQtQtQtQtQtQtQtQtQtQtQtQtQtQtQtQtQtQtQtQtQtQtQtQtQtQtQtQt",
"QtQtQtQtQtQt.#.a.b.c.d.e.e.f.g.h.i.j.kQtQtQtQtQtQtQtQtQtQtQtQtQt",
"QtQtQtQtQt.l.m.n.o.p.q.r.s.t.u.v.w.x.yQtQtQtQtQtQtQtQtQtQtQtQtQt",
"QtQtQtQtQt.z.A.B.C.D.E.F.G.H.I.J.K.L.MQtQtQtQtQtQtQtQtQtQtQtQtQt",
"QtQtQtQtQt.N.O.P.Q.R.S.T.U.V.W.X.Y.Z.MQtQtQtQtQtQtQtQtQtQtQtQtQt",
"QtQtQtQtQt.0.1.2.3.4.5.6.6.7.8.9#.##.MQtQtQtQtQtQtQtQtQtQtQtQtQt",
"QtQtQtQtQt#a#b#c#d#e#f#g#h#i#j#k.L##.MQtQtQtQtQtQtQtQtQtQtQtQtQt",
"QtQtQtQtQt#l#m#n#o#p#q#r.I#s#t#u#v#w#x#y#z#A#B#C#D#E#FQtQtQtQtQt",
"QtQtQtQtQt#G#H#I#g#J#K#L.v#M#N#O#P#Q#R#S#T#U#V#W#X#Y#ZQtQtQtQtQt",
"QtQtQtQtQt#0#1#r#h#2#3#4#5#6#O#7#8#9a.a#aaabacadaeafagQtQtQtQtQt",
"QtQtQtQtQtahaiajakalamanaoapaqarasatauavawaxayazaAaBaCQtQtQtQtQt",
"QtQtQtQtQtaDaEawaFaGaHaI.8aJaKaLaMaNaOaPavaQaRaSaTaUaVQtQtQtQtQt",
"QtQtQtQtQtaWaXaYaZa0a1a2a3a4a5a6a7a8a9b.b#babbaAbcbdbeQtQtQtQtQt",
"QtQtQtQtQtbfbgbhbibjbkbl##bmbnbobpbqbrbsbta9bubvbwbxbyQtQtQtQtQt",
"QtQtQtQtQtbzbAbBbCbDbEbFbGbHbIbJbK.JbLbMbNbObPbQbRbSbTQtQtQtQtQt",
"QtQtQtQtQtbUbVbWbXbYbZb0b1b2b3b4b5avb6b7b8b9c.c#cacbccQtQtQtQtQt",
"QtQtQtQtQtcdcecfcgchcicjckclcmcncocpcqcrcrcsa9ctcucvccQtQtQtQtQt",
"QtQtQtQtQtQtQtcwcxcyczcAcBcCcDcEavcFcGcHcIcJcKcLcMcvccQtQtQtQtQt",
"QtQtQtQtQtQtQtQtcNcOcPcQcQcRcScTcUcVcWcXcYcZc0a9c1c2ccQtQtQtQtQt",
"QtQtQtQtQtQtQtQtQtc3c4c5c6c7c8c9d.d#dadbdcdddedfdgc2ccQtQtQtQtQt",
"QtQtQtQtQtQtQtQtQtQtQtdhdidjdkdldmdndododododpdpdpdqccQtQtQtQtQt",
"QtQtQtQtQtQtQtQtQtQtQtdrdsdtdudvdvdvdvdvdvdvdvdvdvdwdxQtQtQtQtQt",
"QtQtQtQtQtQtQtQtQtQtQtQtQtdydzdAdAdAdAdAdAdAdAdAdBdCQtQtQtQtQtQt",
"QtQtQtQtQtQtQtQtQtQtQtQtQtQtQtQtQtQtQtQtQtQtQtQtQtQtQtQtQtQtQtQt",
"QtQtQtQtQtQtQtQtQtQtQtQtQtQtQtQtQtQtQtQtQtQtQtQtQtQtQtQtQtQtQtQt",
"QtQtQtQtQtQtQtQtQtQtQtQtQtQtQtQtQtQtQtQtQtQtQtQtQtQtQtQtQtQtQtQt",
"QtQtQtQtQtQtQtQtQtQtQtQtQtQtQtQtQtQtQtQtQtQtQtQtQtQtQtQtQtQtQtQt",
"QtQtQtQtQtQtQtQtQtQtQtQtQtQtQtQtQtQtQtQtQtQtQtQtQtQtQtQtQtQtQtQt"};
